<mxfile host="app.diagrams.net" agent="Mozilla/5.0 (Macintosh; Intel Mac OS X 10_15_7) AppleWebKit/537.36 (KHTML, like Gecko) Chrome/140.0.0.0 Safari/537.36" version="28.2.5" pages="3">
  <diagram name="Module Design" id="K9SmWCTvPaJMFEUUwZNo">
    <mxGraphModel dx="1826" dy="1122" grid="1" gridSize="10" guides="1" tooltips="1" connect="1" arrows="1" fold="1" page="0" pageScale="1" pageWidth="850" pageHeight="1100" math="0" shadow="0">
      <root>
        <mxCell id="0" />
        <mxCell id="1" parent="0" />
        <mxCell id="F8KREsBF3k3U0RSw5kk2-1" value="Module" style="ellipse;whiteSpace=wrap;html=1;aspect=fixed;rounded=1;strokeColor=default;align=center;verticalAlign=bottom;fontFamily=Fira Sans;fontSource=https%3A%2F%2Ffonts.googleapis.com%2Fcss%3Ffamily%3DFira%2BSans;fontSize=16;fontColor=default;horizontal=1;fillColor=default;labelPosition=center;verticalLabelPosition=top;fontStyle=1" vertex="1" parent="1">
          <mxGeometry x="-110" y="-90" width="610" height="610" as="geometry" />
        </mxCell>
        <mxCell id="F8KREsBF3k3U0RSw5kk2-8" style="rounded=0;orthogonalLoop=1;jettySize=auto;html=1;entryX=0.971;entryY=0.668;entryDx=0;entryDy=0;fontFamily=Fira Sans;fontSource=https%3A%2F%2Ffonts.googleapis.com%2Fcss%3Ffamily%3DFira%2BSans;fontSize=12;fontColor=default;horizontal=1;entryPerimeter=0;" edge="1" parent="1" source="F8KREsBF3k3U0RSw5kk2-2" target="F8KREsBF3k3U0RSw5kk2-3">
          <mxGeometry relative="1" as="geometry" />
        </mxCell>
        <mxCell id="F8KREsBF3k3U0RSw5kk2-9" value="Implements" style="edgeLabel;html=1;align=center;verticalAlign=middle;resizable=0;points=[];rounded=1;strokeColor=default;fontFamily=Fira Sans;fontSource=https%3A%2F%2Ffonts.googleapis.com%2Fcss%3Ffamily%3DFira%2BSans;fontSize=12;fontColor=default;horizontal=1;fillColor=default;" vertex="1" connectable="0" parent="F8KREsBF3k3U0RSw5kk2-8">
          <mxGeometry x="0.5931" y="5" relative="1" as="geometry">
            <mxPoint x="24" y="8" as="offset" />
          </mxGeometry>
        </mxCell>
        <mxCell id="F8KREsBF3k3U0RSw5kk2-2" value="Domain" style="ellipse;whiteSpace=wrap;html=1;aspect=fixed;rounded=1;strokeColor=#432D57;align=center;verticalAlign=bottom;fontFamily=Fira Sans;fontSource=https%3A%2F%2Ffonts.googleapis.com%2Fcss%3Ffamily%3DFira%2BSans;fontSize=12;fontColor=#ffffff;horizontal=1;fillColor=#76608a;labelPosition=center;verticalLabelPosition=top;fontStyle=1" vertex="1" parent="1">
          <mxGeometry x="260" y="60" width="200" height="200" as="geometry" />
        </mxCell>
        <mxCell id="F8KREsBF3k3U0RSw5kk2-3" value="Contract" style="ellipse;whiteSpace=wrap;html=1;aspect=fixed;rounded=1;strokeColor=#3A5431;align=center;verticalAlign=bottom;fontFamily=Fira Sans;fontSource=https%3A%2F%2Ffonts.googleapis.com%2Fcss%3Ffamily%3DFira%2BSans;fontSize=12;horizontal=1;fillColor=#6d8764;labelPosition=center;verticalLabelPosition=top;fontStyle=1;fontColor=#ffffff;" vertex="1" parent="1">
          <mxGeometry x="40" y="-50" width="170" height="170" as="geometry" />
        </mxCell>
        <mxCell id="F8KREsBF3k3U0RSw5kk2-4" value="Command" style="ellipse;whiteSpace=wrap;html=1;rounded=1;strokeColor=default;align=center;verticalAlign=middle;fontFamily=Fira Sans;fontSource=https%3A%2F%2Ffonts.googleapis.com%2Fcss%3Ffamily%3DFira%2BSans;fontSize=12;fontColor=default;horizontal=1;fillColor=default;" vertex="1" parent="1">
          <mxGeometry x="90" y="-30" width="80" height="30" as="geometry" />
        </mxCell>
        <mxCell id="F8KREsBF3k3U0RSw5kk2-5" value="Exception" style="ellipse;whiteSpace=wrap;html=1;rounded=1;strokeColor=default;align=center;verticalAlign=middle;fontFamily=Fira Sans;fontSource=https%3A%2F%2Ffonts.googleapis.com%2Fcss%3Ffamily%3DFira%2BSans;fontSize=12;fontColor=default;horizontal=1;fillColor=default;" vertex="1" parent="1">
          <mxGeometry x="50" y="15" width="70" height="35" as="geometry" />
        </mxCell>
        <mxCell id="F8KREsBF3k3U0RSw5kk2-6" value="Query" style="ellipse;whiteSpace=wrap;html=1;rounded=1;strokeColor=default;align=center;verticalAlign=middle;fontFamily=Fira Sans;fontSource=https%3A%2F%2Ffonts.googleapis.com%2Fcss%3Ffamily%3DFira%2BSans;fontSize=12;fontColor=default;horizontal=1;fillColor=default;" vertex="1" parent="1">
          <mxGeometry x="100" y="70" width="70" height="30" as="geometry" />
        </mxCell>
        <mxCell id="F8KREsBF3k3U0RSw5kk2-7" value="Data" style="ellipse;whiteSpace=wrap;html=1;rounded=1;strokeColor=default;align=center;verticalAlign=middle;fontFamily=Fira Sans;fontSource=https%3A%2F%2Ffonts.googleapis.com%2Fcss%3Ffamily%3DFira%2BSans;fontSize=12;fontColor=default;horizontal=1;fillColor=default;" vertex="1" parent="1">
          <mxGeometry x="130" y="20" width="70" height="30" as="geometry" />
        </mxCell>
        <mxCell id="F8KREsBF3k3U0RSw5kk2-10" value="Command" style="ellipse;whiteSpace=wrap;html=1;rounded=1;strokeColor=default;align=center;verticalAlign=middle;fontFamily=Fira Sans;fontSource=https%3A%2F%2Ffonts.googleapis.com%2Fcss%3Ffamily%3DFira%2BSans;fontSize=12;fontColor=default;horizontal=1;fillColor=default;" vertex="1" parent="1">
          <mxGeometry x="320" y="80" width="80" height="30" as="geometry" />
        </mxCell>
        <mxCell id="F8KREsBF3k3U0RSw5kk2-12" value="Query" style="ellipse;whiteSpace=wrap;html=1;rounded=1;strokeColor=default;align=center;verticalAlign=middle;fontFamily=Fira Sans;fontSource=https%3A%2F%2Ffonts.googleapis.com%2Fcss%3Ffamily%3DFira%2BSans;fontSize=12;fontColor=default;horizontal=1;fillColor=default;" vertex="1" parent="1">
          <mxGeometry x="285" y="120" width="70" height="30" as="geometry" />
        </mxCell>
        <mxCell id="F8KREsBF3k3U0RSw5kk2-13" value="Component" style="ellipse;whiteSpace=wrap;html=1;rounded=1;strokeColor=default;align=center;verticalAlign=middle;fontFamily=Fira Sans;fontSource=https%3A%2F%2Ffonts.googleapis.com%2Fcss%3Ffamily%3DFira%2BSans;fontSize=12;fontColor=default;horizontal=1;fillColor=default;" vertex="1" parent="1">
          <mxGeometry x="370" y="130" width="80" height="30" as="geometry" />
        </mxCell>
        <mxCell id="F8KREsBF3k3U0RSw5kk2-14" value="Model" style="ellipse;whiteSpace=wrap;html=1;rounded=1;strokeColor=default;align=center;verticalAlign=middle;fontFamily=Fira Sans;fontSource=https%3A%2F%2Ffonts.googleapis.com%2Fcss%3Ffamily%3DFira%2BSans;fontSize=12;fontColor=default;horizontal=1;fillColor=default;" vertex="1" parent="1">
          <mxGeometry x="275" y="170" width="80" height="30" as="geometry" />
        </mxCell>
        <mxCell id="F8KREsBF3k3U0RSw5kk2-15" value="Repository" style="ellipse;whiteSpace=wrap;html=1;rounded=1;strokeColor=default;align=center;verticalAlign=middle;fontFamily=Fira Sans;fontSource=https%3A%2F%2Ffonts.googleapis.com%2Fcss%3Ffamily%3DFira%2BSans;fontSize=12;fontColor=default;horizontal=1;fillColor=default;" vertex="1" parent="1">
          <mxGeometry x="370" y="170" width="80" height="30" as="geometry" />
        </mxCell>
        <mxCell id="F8KREsBF3k3U0RSw5kk2-16" value="..." style="ellipse;whiteSpace=wrap;html=1;rounded=1;strokeColor=default;align=center;verticalAlign=middle;fontFamily=Fira Sans;fontSource=https%3A%2F%2Ffonts.googleapis.com%2Fcss%3Ffamily%3DFira%2BSans;fontSize=12;fontColor=default;horizontal=1;fillColor=default;" vertex="1" parent="1">
          <mxGeometry x="320" y="210" width="80" height="30" as="geometry" />
        </mxCell>
        <mxCell id="F8KREsBF3k3U0RSw5kk2-17" value="Admin" style="ellipse;whiteSpace=wrap;html=1;aspect=fixed;rounded=1;strokeColor=#666666;align=center;verticalAlign=bottom;fontFamily=Fira Sans;fontSource=https%3A%2F%2Ffonts.googleapis.com%2Fcss%3Ffamily%3DFira%2BSans;fontSize=12;fontColor=#333333;horizontal=1;fillColor=#f5f5f5;labelPosition=center;verticalLabelPosition=top;fontStyle=1;strokeWidth=2;dashed=1;" vertex="1" parent="1">
          <mxGeometry x="-80" y="90" width="130" height="130" as="geometry" />
        </mxCell>
        <mxCell id="F8KREsBF3k3U0RSw5kk2-21" style="rounded=0;orthogonalLoop=1;jettySize=auto;html=1;entryX=0.085;entryY=0.793;entryDx=0;entryDy=0;fontFamily=Fira Sans;fontSource=https%3A%2F%2Ffonts.googleapis.com%2Fcss%3Ffamily%3DFira%2BSans;fontSize=12;fontColor=default;horizontal=1;exitX=1;exitY=0;exitDx=0;exitDy=0;entryPerimeter=0;" edge="1" parent="1" source="F8KREsBF3k3U0RSw5kk2-18" target="F8KREsBF3k3U0RSw5kk2-2">
          <mxGeometry relative="1" as="geometry" />
        </mxCell>
        <mxCell id="F8KREsBF3k3U0RSw5kk2-27" value="Depends on" style="edgeLabel;html=1;align=center;verticalAlign=middle;resizable=0;points=[];rounded=1;strokeColor=default;fontFamily=Fira Sans;fontSource=https%3A%2F%2Ffonts.googleapis.com%2Fcss%3Ffamily%3DFira%2BSans;fontSize=12;fontColor=default;horizontal=1;fillColor=default;" vertex="1" connectable="0" parent="F8KREsBF3k3U0RSw5kk2-21">
          <mxGeometry x="-0.015" y="1" relative="1" as="geometry">
            <mxPoint as="offset" />
          </mxGeometry>
        </mxCell>
        <mxCell id="F8KREsBF3k3U0RSw5kk2-18" value="Intercom" style="ellipse;whiteSpace=wrap;html=1;aspect=fixed;rounded=1;strokeColor=#666666;align=center;verticalAlign=bottom;fontFamily=Fira Sans;fontSource=https%3A%2F%2Ffonts.googleapis.com%2Fcss%3Ffamily%3DFira%2BSans;fontSize=12;fontColor=#333333;horizontal=1;fillColor=#f5f5f5;labelPosition=center;verticalLabelPosition=top;fontStyle=1;dashed=1;strokeWidth=2;" vertex="1" parent="1">
          <mxGeometry x="-40" y="280" width="130" height="130" as="geometry" />
        </mxCell>
        <mxCell id="F8KREsBF3k3U0RSw5kk2-22" style="rounded=0;orthogonalLoop=1;jettySize=auto;html=1;fontFamily=Fira Sans;fontSource=https%3A%2F%2Ffonts.googleapis.com%2Fcss%3Ffamily%3DFira%2BSans;fontSize=12;fontColor=default;horizontal=1;" edge="1" parent="1" source="F8KREsBF3k3U0RSw5kk2-19" target="F8KREsBF3k3U0RSw5kk2-2">
          <mxGeometry relative="1" as="geometry" />
        </mxCell>
        <mxCell id="F8KREsBF3k3U0RSw5kk2-28" value="Depends on" style="edgeLabel;html=1;align=center;verticalAlign=middle;resizable=0;points=[];rounded=1;strokeColor=default;fontFamily=Fira Sans;fontSource=https%3A%2F%2Ffonts.googleapis.com%2Fcss%3Ffamily%3DFira%2BSans;fontSize=12;fontColor=default;horizontal=1;fillColor=default;" vertex="1" connectable="0" parent="F8KREsBF3k3U0RSw5kk2-22">
          <mxGeometry x="-0.1357" y="-1" relative="1" as="geometry">
            <mxPoint as="offset" />
          </mxGeometry>
        </mxCell>
        <mxCell id="F8KREsBF3k3U0RSw5kk2-19" value="Service" style="ellipse;whiteSpace=wrap;html=1;aspect=fixed;rounded=1;strokeColor=#666666;align=center;verticalAlign=bottom;fontFamily=Fira Sans;fontSource=https%3A%2F%2Ffonts.googleapis.com%2Fcss%3Ffamily%3DFira%2BSans;fontSize=12;fontColor=#333333;horizontal=1;fillColor=#f5f5f5;labelPosition=center;verticalLabelPosition=top;fontStyle=1;dashed=1;strokeWidth=2;" vertex="1" parent="1">
          <mxGeometry x="237.5" y="340" width="130" height="130" as="geometry" />
        </mxCell>
        <mxCell id="F8KREsBF3k3U0RSw5kk2-20" style="rounded=0;orthogonalLoop=1;jettySize=auto;html=1;entryX=0;entryY=0.5;entryDx=0;entryDy=0;fontFamily=Fira Sans;fontSource=https%3A%2F%2Ffonts.googleapis.com%2Fcss%3Ffamily%3DFira%2BSans;fontSize=12;fontColor=default;horizontal=1;exitX=1;exitY=0.5;exitDx=0;exitDy=0;" edge="1" parent="1" source="F8KREsBF3k3U0RSw5kk2-17" target="F8KREsBF3k3U0RSw5kk2-2">
          <mxGeometry relative="1" as="geometry" />
        </mxCell>
        <mxCell id="F8KREsBF3k3U0RSw5kk2-26" value="Depends on" style="edgeLabel;html=1;align=center;verticalAlign=middle;resizable=0;points=[];rounded=1;strokeColor=default;fontFamily=Fira Sans;fontSource=https%3A%2F%2Ffonts.googleapis.com%2Fcss%3Ffamily%3DFira%2BSans;fontSize=12;fontColor=default;horizontal=1;fillColor=default;" vertex="1" connectable="0" parent="F8KREsBF3k3U0RSw5kk2-20">
          <mxGeometry x="-0.0796" y="-1" relative="1" as="geometry">
            <mxPoint as="offset" />
          </mxGeometry>
        </mxCell>
        <mxCell id="F8KREsBF3k3U0RSw5kk2-23" value="API" style="ellipse;whiteSpace=wrap;html=1;rounded=1;strokeColor=default;align=center;verticalAlign=middle;fontFamily=Fira Sans;fontSource=https%3A%2F%2Ffonts.googleapis.com%2Fcss%3Ffamily%3DFira%2BSans;fontSize=12;fontColor=default;horizontal=1;fillColor=default;" vertex="1" parent="1">
          <mxGeometry x="-40" y="110" width="50" height="20" as="geometry" />
        </mxCell>
        <mxCell id="F8KREsBF3k3U0RSw5kk2-24" value="Controllers" style="ellipse;whiteSpace=wrap;html=1;rounded=1;strokeColor=default;align=center;verticalAlign=middle;fontFamily=Fira Sans;fontSource=https%3A%2F%2Ffonts.googleapis.com%2Fcss%3Ffamily%3DFira%2BSans;fontSize=12;fontColor=default;horizontal=1;fillColor=default;" vertex="1" parent="1">
          <mxGeometry x="-55" y="140" width="80" height="30" as="geometry" />
        </mxCell>
        <mxCell id="F8KREsBF3k3U0RSw5kk2-25" value="..." style="ellipse;whiteSpace=wrap;html=1;rounded=1;strokeColor=default;align=center;verticalAlign=middle;fontFamily=Fira Sans;fontSource=https%3A%2F%2Ffonts.googleapis.com%2Fcss%3Ffamily%3DFira%2BSans;fontSize=12;fontColor=default;horizontal=1;fillColor=default;" vertex="1" parent="1">
          <mxGeometry x="-40" y="180" width="50" height="20" as="geometry" />
        </mxCell>
        <mxCell id="F8KREsBF3k3U0RSw5kk2-29" value="API" style="ellipse;whiteSpace=wrap;html=1;rounded=1;strokeColor=default;align=center;verticalAlign=middle;fontFamily=Fira Sans;fontSource=https%3A%2F%2Ffonts.googleapis.com%2Fcss%3Ffamily%3DFira%2BSans;fontSize=12;fontColor=default;horizontal=1;fillColor=default;" vertex="1" parent="1">
          <mxGeometry y="300" width="50" height="20" as="geometry" />
        </mxCell>
        <mxCell id="F8KREsBF3k3U0RSw5kk2-30" value="Controllers" style="ellipse;whiteSpace=wrap;html=1;rounded=1;strokeColor=default;align=center;verticalAlign=middle;fontFamily=Fira Sans;fontSource=https%3A%2F%2Ffonts.googleapis.com%2Fcss%3Ffamily%3DFira%2BSans;fontSize=12;fontColor=default;horizontal=1;fillColor=default;" vertex="1" parent="1">
          <mxGeometry x="-15" y="330" width="80" height="30" as="geometry" />
        </mxCell>
        <mxCell id="F8KREsBF3k3U0RSw5kk2-31" value="..." style="ellipse;whiteSpace=wrap;html=1;rounded=1;strokeColor=default;align=center;verticalAlign=middle;fontFamily=Fira Sans;fontSource=https%3A%2F%2Ffonts.googleapis.com%2Fcss%3Ffamily%3DFira%2BSans;fontSize=12;fontColor=default;horizontal=1;fillColor=default;" vertex="1" parent="1">
          <mxGeometry y="370" width="50" height="20" as="geometry" />
        </mxCell>
        <mxCell id="F8KREsBF3k3U0RSw5kk2-32" value="API" style="ellipse;whiteSpace=wrap;html=1;rounded=1;strokeColor=default;align=center;verticalAlign=middle;fontFamily=Fira Sans;fontSource=https%3A%2F%2Ffonts.googleapis.com%2Fcss%3Ffamily%3DFira%2BSans;fontSize=12;fontColor=default;horizontal=1;fillColor=default;" vertex="1" parent="1">
          <mxGeometry x="277.5" y="360" width="50" height="20" as="geometry" />
        </mxCell>
        <mxCell id="F8KREsBF3k3U0RSw5kk2-33" value="Controllers" style="ellipse;whiteSpace=wrap;html=1;rounded=1;strokeColor=default;align=center;verticalAlign=middle;fontFamily=Fira Sans;fontSource=https%3A%2F%2Ffonts.googleapis.com%2Fcss%3Ffamily%3DFira%2BSans;fontSize=12;fontColor=default;horizontal=1;fillColor=default;" vertex="1" parent="1">
          <mxGeometry x="262.5" y="390" width="80" height="30" as="geometry" />
        </mxCell>
        <mxCell id="F8KREsBF3k3U0RSw5kk2-34" value="..." style="ellipse;whiteSpace=wrap;html=1;rounded=1;strokeColor=default;align=center;verticalAlign=middle;fontFamily=Fira Sans;fontSource=https%3A%2F%2Ffonts.googleapis.com%2Fcss%3Ffamily%3DFira%2BSans;fontSize=12;fontColor=default;horizontal=1;fillColor=default;" vertex="1" parent="1">
          <mxGeometry x="277.5" y="430" width="50" height="20" as="geometry" />
        </mxCell>
        <mxCell id="F8KREsBF3k3U0RSw5kk2-35" value="Client" style="ellipse;whiteSpace=wrap;html=1;aspect=fixed;rounded=1;strokeColor=default;align=center;verticalAlign=middle;fontFamily=Fira Sans;fontSource=https%3A%2F%2Ffonts.googleapis.com%2Fcss%3Ffamily%3DFira%2BSans;fontSize=12;fontColor=default;horizontal=1;fillColor=default;labelPosition=center;verticalLabelPosition=middle;fontStyle=1;strokeWidth=2;dashed=1;" vertex="1" parent="1">
          <mxGeometry x="-60" y="210" width="50" height="50" as="geometry" />
        </mxCell>
        <mxCell id="F8KREsBF3k3U0RSw5kk2-36" value="Client" style="ellipse;whiteSpace=wrap;html=1;aspect=fixed;rounded=1;strokeColor=default;align=center;verticalAlign=middle;fontFamily=Fira Sans;fontSource=https%3A%2F%2Ffonts.googleapis.com%2Fcss%3Ffamily%3DFira%2BSans;fontSize=12;fontColor=default;horizontal=1;fillColor=default;labelPosition=center;verticalLabelPosition=middle;fontStyle=1;strokeWidth=2;dashed=1;" vertex="1" parent="1">
          <mxGeometry x="15" y="400" width="50" height="50" as="geometry" />
        </mxCell>
        <mxCell id="F8KREsBF3k3U0RSw5kk2-37" value="Client" style="ellipse;whiteSpace=wrap;html=1;aspect=fixed;rounded=1;strokeColor=default;align=center;verticalAlign=middle;fontFamily=Fira Sans;fontSource=https%3A%2F%2Ffonts.googleapis.com%2Fcss%3Ffamily%3DFira%2BSans;fontSize=12;fontColor=default;horizontal=1;fillColor=default;labelPosition=center;verticalLabelPosition=middle;fontStyle=1;strokeWidth=2;dashed=1;" vertex="1" parent="1">
          <mxGeometry x="342.5" y="346.89" width="50" height="50" as="geometry" />
        </mxCell>
        <mxCell id="TrM1rBb8hDv9zeopU5Wb-1" value="Store" style="ellipse;whiteSpace=wrap;html=1;aspect=fixed;rounded=1;strokeColor=#666666;align=center;verticalAlign=bottom;fontFamily=Fira Sans;fontSource=https%3A%2F%2Ffonts.googleapis.com%2Fcss%3Ffamily%3DFira%2BSans;fontSize=12;fontColor=#333333;horizontal=1;fillColor=#f5f5f5;labelPosition=center;verticalLabelPosition=top;fontStyle=1;dashed=1;strokeWidth=2;" vertex="1" parent="1">
          <mxGeometry x="130" y="396.89" width="70" height="70" as="geometry" />
        </mxCell>
        <mxCell id="TrM1rBb8hDv9zeopU5Wb-2" style="rounded=0;orthogonalLoop=1;jettySize=auto;html=1;entryX=0.954;entryY=0.696;entryDx=0;entryDy=0;entryPerimeter=0;fontFamily=Fira Sans;fontSource=https%3A%2F%2Ffonts.googleapis.com%2Fcss%3Ffamily%3DFira%2BSans;fontSize=12;fontColor=default;horizontal=1;" edge="1" parent="1" source="TrM1rBb8hDv9zeopU5Wb-1" target="F8KREsBF3k3U0RSw5kk2-18">
          <mxGeometry relative="1" as="geometry" />
        </mxCell>
      </root>
    </mxGraphModel>
  </diagram>
  <diagram id="6v0OdKa0rEuVm_NMGPjB" name="Architecture">
    <mxGraphModel dx="1826" dy="1122" grid="1" gridSize="10" guides="1" tooltips="1" connect="1" arrows="1" fold="1" page="0" pageScale="1" pageWidth="850" pageHeight="1100" math="0" shadow="0">
      <root>
        <mxCell id="0" />
        <mxCell id="1" parent="0" />
        <mxCell id="mzL0r8CzNdmKKFGyqJOy-49" value="FSPIOP" style="rounded=1;whiteSpace=wrap;html=1;align=center;verticalAlign=bottom;fontFamily=Fira Sans;fontSource=https%3A%2F%2Ffonts.googleapis.com%2Fcss%3Ffamily%3DFira%2BSans;fontSize=12;horizontal=1;arcSize=6;dashed=1;labelPosition=center;verticalLabelPosition=top;fontStyle=1" vertex="1" parent="1">
          <mxGeometry x="110" y="-200" width="450" height="840" as="geometry" />
        </mxCell>
        <mxCell id="mzL0r8CzNdmKKFGyqJOy-33" value="FSPIOP" style="rounded=1;whiteSpace=wrap;html=1;strokeColor=#666666;align=center;verticalAlign=bottom;fontFamily=Fira Sans;fontSource=https%3A%2F%2Ffonts.googleapis.com%2Fcss%3Ffamily%3DFira%2BSans;fontSize=12;fontColor=#333333;horizontal=1;fillColor=#f5f5f5;arcSize=6;dashed=1;labelPosition=center;verticalLabelPosition=top;fontStyle=1" vertex="1" parent="1">
          <mxGeometry x="150" y="-150" width="370" height="490" as="geometry" />
        </mxCell>
        <mxCell id="mzL0r8CzNdmKKFGyqJOy-1" style="edgeStyle=orthogonalEdgeStyle;rounded=1;orthogonalLoop=1;jettySize=auto;html=1;entryX=0;entryY=0.5;entryDx=0;entryDy=0;fontFamily=Fira Sans;fontSource=https%3A%2F%2Ffonts.googleapis.com%2Fcss%3Ffamily%3DFira%2BSans;fontSize=12;fontColor=default;horizontal=1;curved=0;endArrow=classic;endFill=1;startArrow=classic;startFill=1;" edge="1" parent="1" source="C3J6-2w8ZtnEFhaiWDgr-28" target="C3J6-2w8ZtnEFhaiWDgr-40">
          <mxGeometry relative="1" as="geometry">
            <Array as="points">
              <mxPoint x="10" y="-55" />
            </Array>
          </mxGeometry>
        </mxCell>
        <mxCell id="mzL0r8CzNdmKKFGyqJOy-13" value="" style="edgeLabel;html=1;align=center;verticalAlign=middle;resizable=0;points=[];rounded=1;strokeColor=default;fontFamily=Fira Sans;fontSource=https%3A%2F%2Ffonts.googleapis.com%2Fcss%3Ffamily%3DFira%2BSans;fontSize=12;fontColor=default;horizontal=1;fillColor=default;" vertex="1" connectable="0" parent="mzL0r8CzNdmKKFGyqJOy-1">
          <mxGeometry x="0.2588" y="-1" relative="1" as="geometry">
            <mxPoint as="offset" />
          </mxGeometry>
        </mxCell>
        <mxCell id="mzL0r8CzNdmKKFGyqJOy-2" style="edgeStyle=orthogonalEdgeStyle;rounded=0;orthogonalLoop=1;jettySize=auto;html=1;entryX=0;entryY=0.5;entryDx=0;entryDy=0;fontFamily=Fira Sans;fontSource=https%3A%2F%2Ffonts.googleapis.com%2Fcss%3Ffamily%3DFira%2BSans;fontSize=12;fontColor=default;horizontal=1;startArrow=classic;startFill=1;" edge="1" parent="1" source="C3J6-2w8ZtnEFhaiWDgr-28" target="C3J6-2w8ZtnEFhaiWDgr-51">
          <mxGeometry relative="1" as="geometry" />
        </mxCell>
        <mxCell id="mzL0r8CzNdmKKFGyqJOy-3" style="edgeStyle=orthogonalEdgeStyle;rounded=1;orthogonalLoop=1;jettySize=auto;html=1;entryX=0;entryY=0.5;entryDx=0;entryDy=0;fontFamily=Fira Sans;fontSource=https%3A%2F%2Ffonts.googleapis.com%2Fcss%3Ffamily%3DFira%2BSans;fontSize=12;fontColor=default;horizontal=1;curved=0;startArrow=classic;startFill=1;" edge="1" parent="1" source="C3J6-2w8ZtnEFhaiWDgr-28" target="C3J6-2w8ZtnEFhaiWDgr-69">
          <mxGeometry relative="1" as="geometry">
            <Array as="points">
              <mxPoint x="10" y="265" />
            </Array>
          </mxGeometry>
        </mxCell>
        <mxCell id="C3J6-2w8ZtnEFhaiWDgr-28" value="Connector&lt;div&gt;(Payer)&lt;/div&gt;" style="ellipse;whiteSpace=wrap;html=1;aspect=fixed;rounded=1;strokeColor=default;align=center;verticalAlign=middle;fontFamily=Fira Sans;fontSource=https%3A%2F%2Ffonts.googleapis.com%2Fcss%3Ffamily%3DFira%2BSans;fontSize=12;fontColor=default;horizontal=1;fillColor=default;" vertex="1" parent="1">
          <mxGeometry x="-30" y="65" width="80" height="80" as="geometry" />
        </mxCell>
        <mxCell id="C3J6-2w8ZtnEFhaiWDgr-30" style="edgeStyle=orthogonalEdgeStyle;rounded=0;orthogonalLoop=1;jettySize=auto;html=1;entryX=0;entryY=0.5;entryDx=0;entryDy=0;fontFamily=Fira Sans;fontSource=https%3A%2F%2Ffonts.googleapis.com%2Fcss%3Ffamily%3DFira%2BSans;fontSize=12;fontColor=default;horizontal=1;" edge="1" parent="1" source="C3J6-2w8ZtnEFhaiWDgr-29" target="C3J6-2w8ZtnEFhaiWDgr-28">
          <mxGeometry relative="1" as="geometry" />
        </mxCell>
        <mxCell id="C3J6-2w8ZtnEFhaiWDgr-29" value="Payer" style="shape=umlActor;verticalLabelPosition=bottom;verticalAlign=top;html=1;outlineConnect=0;rounded=1;strokeColor=default;align=center;fontFamily=Fira Sans;fontSource=https%3A%2F%2Ffonts.googleapis.com%2Fcss%3Ffamily%3DFira%2BSans;fontSize=12;fontColor=default;horizontal=1;fillColor=default;" vertex="1" parent="1">
          <mxGeometry x="-140" y="75" width="30" height="60" as="geometry" />
        </mxCell>
        <mxCell id="C3J6-2w8ZtnEFhaiWDgr-58" value="" style="group" vertex="1" connectable="0" parent="1">
          <mxGeometry x="270" y="50" width="130" height="110" as="geometry" />
        </mxCell>
        <mxCell id="C3J6-2w8ZtnEFhaiWDgr-51" value="Quoting" style="rounded=1;whiteSpace=wrap;html=1;align=center;verticalAlign=bottom;fontFamily=Fira Sans;fontSource=https%3A%2F%2Ffonts.googleapis.com%2Fcss%3Ffamily%3DFira%2BSans;fontSize=12;horizontal=1;fontStyle=1;labelPosition=center;verticalLabelPosition=top;" vertex="1" parent="C3J6-2w8ZtnEFhaiWDgr-58">
          <mxGeometry width="130" height="110" as="geometry" />
        </mxCell>
        <mxCell id="C3J6-2w8ZtnEFhaiWDgr-52" value="Service&lt;div&gt;(FSPIOP)&lt;/div&gt;" style="rounded=1;whiteSpace=wrap;html=1;strokeColor=#666666;align=center;verticalAlign=middle;fontFamily=Fira Sans;fontSource=https%3A%2F%2Ffonts.googleapis.com%2Fcss%3Ffamily%3DFira%2BSans;fontSize=12;fontColor=#333333;horizontal=1;fillColor=#f5f5f5;" vertex="1" parent="C3J6-2w8ZtnEFhaiWDgr-58">
          <mxGeometry x="20" y="35" width="90" height="40" as="geometry" />
        </mxCell>
        <mxCell id="C3J6-2w8ZtnEFhaiWDgr-59" value="" style="group" vertex="1" connectable="0" parent="1">
          <mxGeometry x="270" y="-110" width="130" height="110" as="geometry" />
        </mxCell>
        <mxCell id="C3J6-2w8ZtnEFhaiWDgr-40" value="Lookup" style="rounded=1;whiteSpace=wrap;html=1;align=center;verticalAlign=bottom;fontFamily=Fira Sans;fontSource=https%3A%2F%2Ffonts.googleapis.com%2Fcss%3Ffamily%3DFira%2BSans;fontSize=12;horizontal=1;fontStyle=1;labelPosition=center;verticalLabelPosition=top;" vertex="1" parent="C3J6-2w8ZtnEFhaiWDgr-59">
          <mxGeometry width="130" height="110" as="geometry" />
        </mxCell>
        <mxCell id="C3J6-2w8ZtnEFhaiWDgr-41" value="Service&lt;div&gt;(FSPIOP)&lt;/div&gt;" style="rounded=1;whiteSpace=wrap;html=1;strokeColor=#666666;align=center;verticalAlign=middle;fontFamily=Fira Sans;fontSource=https%3A%2F%2Ffonts.googleapis.com%2Fcss%3Ffamily%3DFira%2BSans;fontSize=12;fontColor=#333333;horizontal=1;fillColor=#f5f5f5;" vertex="1" parent="C3J6-2w8ZtnEFhaiWDgr-59">
          <mxGeometry x="20" y="35" width="90" height="40" as="geometry" />
        </mxCell>
        <mxCell id="C3J6-2w8ZtnEFhaiWDgr-68" value="" style="group" vertex="1" connectable="0" parent="1">
          <mxGeometry x="270" y="210" width="130" height="110" as="geometry" />
        </mxCell>
        <mxCell id="C3J6-2w8ZtnEFhaiWDgr-69" value="Transfer" style="rounded=1;whiteSpace=wrap;html=1;align=center;verticalAlign=bottom;fontFamily=Fira Sans;fontSource=https%3A%2F%2Ffonts.googleapis.com%2Fcss%3Ffamily%3DFira%2BSans;fontSize=12;horizontal=1;fontStyle=1;labelPosition=center;verticalLabelPosition=top;" vertex="1" parent="C3J6-2w8ZtnEFhaiWDgr-68">
          <mxGeometry width="130" height="110" as="geometry" />
        </mxCell>
        <mxCell id="C3J6-2w8ZtnEFhaiWDgr-70" value="Service&lt;div&gt;(FSPIOP)&lt;/div&gt;" style="rounded=1;whiteSpace=wrap;html=1;strokeColor=#666666;align=center;verticalAlign=middle;fontFamily=Fira Sans;fontSource=https%3A%2F%2Ffonts.googleapis.com%2Fcss%3Ffamily%3DFira%2BSans;fontSize=12;fontColor=#333333;horizontal=1;fillColor=#f5f5f5;" vertex="1" parent="C3J6-2w8ZtnEFhaiWDgr-68">
          <mxGeometry x="20" y="35" width="90" height="40" as="geometry" />
        </mxCell>
        <mxCell id="mzL0r8CzNdmKKFGyqJOy-5" value="&lt;b&gt;PUT&lt;/b&gt;&lt;div&gt;/transfers&lt;/div&gt;" style="text;html=1;align=center;verticalAlign=middle;whiteSpace=wrap;rounded=0;fontFamily=Fira Sans;fontSource=https%3A%2F%2Ffonts.googleapis.com%2Fcss%3Ffamily%3DFira%2BSans;fontSize=12;fontColor=default;horizontal=1;" vertex="1" parent="1">
          <mxGeometry x="10" y="145" width="60" height="30" as="geometry" />
        </mxCell>
        <mxCell id="mzL0r8CzNdmKKFGyqJOy-6" value="&lt;b&gt;POST&lt;/b&gt;&lt;div&gt;/transfers&lt;/div&gt;" style="text;html=1;align=center;verticalAlign=middle;whiteSpace=wrap;rounded=0;fontFamily=Fira Sans;fontSource=https%3A%2F%2Ffonts.googleapis.com%2Fcss%3Ffamily%3DFira%2BSans;fontSize=12;fontColor=default;horizontal=1;" vertex="1" parent="1">
          <mxGeometry x="200" y="270" width="60" height="30" as="geometry" />
        </mxCell>
        <mxCell id="mzL0r8CzNdmKKFGyqJOy-7" value="&lt;b&gt;PUT&lt;/b&gt;&lt;div&gt;/quotes&lt;/div&gt;" style="text;html=1;align=center;verticalAlign=middle;whiteSpace=wrap;rounded=0;fontFamily=Fira Sans;fontSource=https%3A%2F%2Ffonts.googleapis.com%2Fcss%3Ffamily%3DFira%2BSans;fontSize=12;fontColor=default;horizontal=1;" vertex="1" parent="1">
          <mxGeometry x="39" y="75" width="60" height="30" as="geometry" />
        </mxCell>
        <mxCell id="mzL0r8CzNdmKKFGyqJOy-8" value="&lt;b&gt;PUT&lt;/b&gt;&lt;div&gt;/parties&lt;/div&gt;" style="text;html=1;align=center;verticalAlign=middle;whiteSpace=wrap;rounded=0;fontFamily=Fira Sans;fontSource=https%3A%2F%2Ffonts.googleapis.com%2Fcss%3Ffamily%3DFira%2BSans;fontSize=12;fontColor=default;horizontal=1;" vertex="1" parent="1">
          <mxGeometry x="10" y="30" width="60" height="30" as="geometry" />
        </mxCell>
        <mxCell id="mzL0r8CzNdmKKFGyqJOy-9" value="&lt;b&gt;POST&lt;/b&gt;&lt;div&gt;/quotes&lt;/div&gt;" style="text;html=1;align=center;verticalAlign=middle;whiteSpace=wrap;rounded=0;fontFamily=Fira Sans;fontSource=https%3A%2F%2Ffonts.googleapis.com%2Fcss%3Ffamily%3DFira%2BSans;fontSize=12;fontColor=default;horizontal=1;" vertex="1" parent="1">
          <mxGeometry x="210" y="115" width="60" height="30" as="geometry" />
        </mxCell>
        <mxCell id="mzL0r8CzNdmKKFGyqJOy-10" value="&lt;b&gt;GET&lt;/b&gt;&lt;div&gt;/parties&lt;/div&gt;" style="text;html=1;align=center;verticalAlign=middle;whiteSpace=wrap;rounded=0;fontFamily=Fira Sans;fontSource=https%3A%2F%2Ffonts.googleapis.com%2Fcss%3Ffamily%3DFira%2BSans;fontSize=12;fontColor=default;horizontal=1;" vertex="1" parent="1">
          <mxGeometry x="210" y="-50" width="60" height="30" as="geometry" />
        </mxCell>
        <mxCell id="mzL0r8CzNdmKKFGyqJOy-21" style="edgeStyle=orthogonalEdgeStyle;rounded=1;orthogonalLoop=1;jettySize=auto;html=1;entryX=1;entryY=0.5;entryDx=0;entryDy=0;fontFamily=Fira Sans;fontSource=https%3A%2F%2Ffonts.googleapis.com%2Fcss%3Ffamily%3DFira%2BSans;fontSize=12;fontColor=default;horizontal=1;curved=0;exitX=0.25;exitY=1;exitDx=0;exitDy=0;" edge="1" parent="1" source="C3J6-2w8ZtnEFhaiWDgr-69" target="mzL0r8CzNdmKKFGyqJOy-15">
          <mxGeometry relative="1" as="geometry" />
        </mxCell>
        <mxCell id="mzL0r8CzNdmKKFGyqJOy-22" value="Publish" style="edgeLabel;html=1;align=center;verticalAlign=middle;resizable=0;points=[];rounded=1;strokeColor=default;fontFamily=Fira Sans;fontSource=https%3A%2F%2Ffonts.googleapis.com%2Fcss%3Ffamily%3DFira%2BSans;fontSize=12;fontColor=default;horizontal=1;fillColor=default;" vertex="1" connectable="0" parent="mzL0r8CzNdmKKFGyqJOy-21">
          <mxGeometry x="0.2932" y="3" relative="1" as="geometry">
            <mxPoint as="offset" />
          </mxGeometry>
        </mxCell>
        <mxCell id="mzL0r8CzNdmKKFGyqJOy-30" style="edgeStyle=orthogonalEdgeStyle;rounded=1;orthogonalLoop=1;jettySize=auto;html=1;entryX=1;entryY=0.5;entryDx=0;entryDy=0;fontFamily=Fira Sans;fontSource=https%3A%2F%2Ffonts.googleapis.com%2Fcss%3Ffamily%3DFira%2BSans;fontSize=12;fontColor=default;horizontal=1;curved=0;startArrow=classic;startFill=1;exitX=0.5;exitY=1;exitDx=0;exitDy=0;" edge="1" parent="1" source="mzL0r8CzNdmKKFGyqJOy-23" target="C3J6-2w8ZtnEFhaiWDgr-69">
          <mxGeometry relative="1" as="geometry">
            <Array as="points">
              <mxPoint x="660" y="265" />
            </Array>
          </mxGeometry>
        </mxCell>
        <mxCell id="mzL0r8CzNdmKKFGyqJOy-23" value="Connector&lt;div&gt;(Payer)&lt;/div&gt;" style="ellipse;whiteSpace=wrap;html=1;aspect=fixed;rounded=1;strokeColor=default;align=center;verticalAlign=middle;fontFamily=Fira Sans;fontSource=https%3A%2F%2Ffonts.googleapis.com%2Fcss%3Ffamily%3DFira%2BSans;fontSize=12;fontColor=default;horizontal=1;fillColor=default;" vertex="1" parent="1">
          <mxGeometry x="620" y="65" width="80" height="80" as="geometry" />
        </mxCell>
        <mxCell id="mzL0r8CzNdmKKFGyqJOy-24" style="edgeStyle=orthogonalEdgeStyle;rounded=0;orthogonalLoop=1;jettySize=auto;html=1;entryX=0;entryY=0.5;entryDx=0;entryDy=0;fontFamily=Fira Sans;fontSource=https%3A%2F%2Ffonts.googleapis.com%2Fcss%3Ffamily%3DFira%2BSans;fontSize=12;fontColor=default;horizontal=1;startArrow=classic;startFill=1;" edge="1" parent="1" source="C3J6-2w8ZtnEFhaiWDgr-51" target="mzL0r8CzNdmKKFGyqJOy-23">
          <mxGeometry relative="1" as="geometry" />
        </mxCell>
        <mxCell id="mzL0r8CzNdmKKFGyqJOy-25" value="&lt;b&gt;POST&lt;/b&gt;&lt;div&gt;/quotes&lt;/div&gt;" style="text;html=1;align=center;verticalAlign=middle;whiteSpace=wrap;rounded=0;fontFamily=Fira Sans;fontSource=https%3A%2F%2Ffonts.googleapis.com%2Fcss%3Ffamily%3DFira%2BSans;fontSize=12;fontColor=default;horizontal=1;" vertex="1" parent="1">
          <mxGeometry x="560" y="105" width="60" height="30" as="geometry" />
        </mxCell>
        <mxCell id="mzL0r8CzNdmKKFGyqJOy-26" value="&lt;b&gt;PUT&lt;/b&gt;&lt;div&gt;/quotes&lt;/div&gt;" style="text;html=1;align=center;verticalAlign=middle;whiteSpace=wrap;rounded=0;fontFamily=Fira Sans;fontSource=https%3A%2F%2Ffonts.googleapis.com%2Fcss%3Ffamily%3DFira%2BSans;fontSize=12;fontColor=default;horizontal=1;" vertex="1" parent="1">
          <mxGeometry x="400" y="75" width="60" height="30" as="geometry" />
        </mxCell>
        <mxCell id="mzL0r8CzNdmKKFGyqJOy-27" style="edgeStyle=orthogonalEdgeStyle;rounded=1;orthogonalLoop=1;jettySize=auto;html=1;entryX=0.5;entryY=0;entryDx=0;entryDy=0;fontFamily=Fira Sans;fontSource=https%3A%2F%2Ffonts.googleapis.com%2Fcss%3Ffamily%3DFira%2BSans;fontSize=12;fontColor=default;horizontal=1;curved=0;startArrow=classic;startFill=1;" edge="1" parent="1" source="C3J6-2w8ZtnEFhaiWDgr-40" target="mzL0r8CzNdmKKFGyqJOy-23">
          <mxGeometry relative="1" as="geometry" />
        </mxCell>
        <mxCell id="mzL0r8CzNdmKKFGyqJOy-28" value="&lt;b&gt;GET&lt;/b&gt;&lt;div&gt;/parties&lt;/div&gt;" style="text;html=1;align=center;verticalAlign=middle;whiteSpace=wrap;rounded=0;fontFamily=Fira Sans;fontSource=https%3A%2F%2Ffonts.googleapis.com%2Fcss%3Ffamily%3DFira%2BSans;fontSize=12;fontColor=default;horizontal=1;" vertex="1" parent="1">
          <mxGeometry x="600" y="30" width="60" height="30" as="geometry" />
        </mxCell>
        <mxCell id="mzL0r8CzNdmKKFGyqJOy-29" value="&lt;b&gt;PUT&lt;/b&gt;&lt;div&gt;/parties&lt;/div&gt;" style="text;html=1;align=center;verticalAlign=middle;whiteSpace=wrap;rounded=0;fontFamily=Fira Sans;fontSource=https%3A%2F%2Ffonts.googleapis.com%2Fcss%3Ffamily%3DFira%2BSans;fontSize=12;fontColor=default;horizontal=1;" vertex="1" parent="1">
          <mxGeometry x="400" y="-50" width="60" height="30" as="geometry" />
        </mxCell>
        <mxCell id="mzL0r8CzNdmKKFGyqJOy-31" value="&lt;b&gt;PUT&lt;/b&gt;&lt;div&gt;/transfers&lt;/div&gt;" style="text;html=1;align=center;verticalAlign=middle;whiteSpace=wrap;rounded=0;fontFamily=Fira Sans;fontSource=https%3A%2F%2Ffonts.googleapis.com%2Fcss%3Ffamily%3DFira%2BSans;fontSize=12;fontColor=default;horizontal=1;" vertex="1" parent="1">
          <mxGeometry x="400" y="230" width="60" height="30" as="geometry" />
        </mxCell>
        <mxCell id="mzL0r8CzNdmKKFGyqJOy-32" value="&lt;b&gt;POST&lt;/b&gt;&lt;div&gt;/transfers&lt;/div&gt;" style="text;html=1;align=center;verticalAlign=middle;whiteSpace=wrap;rounded=0;fontFamily=Fira Sans;fontSource=https%3A%2F%2Ffonts.googleapis.com%2Fcss%3Ffamily%3DFira%2BSans;fontSize=12;fontColor=default;horizontal=1;" vertex="1" parent="1">
          <mxGeometry x="600" y="150" width="60" height="30" as="geometry" />
        </mxCell>
        <mxCell id="mzL0r8CzNdmKKFGyqJOy-39" style="edgeStyle=orthogonalEdgeStyle;rounded=1;orthogonalLoop=1;jettySize=auto;html=1;entryX=0;entryY=0.5;entryDx=0;entryDy=0;fontFamily=Fira Sans;fontSource=https%3A%2F%2Ffonts.googleapis.com%2Fcss%3Ffamily%3DFira%2BSans;fontSize=12;fontColor=default;horizontal=1;curved=0;exitX=0.75;exitY=1;exitDx=0;exitDy=0;" edge="1" parent="1" source="C3J6-2w8ZtnEFhaiWDgr-69" target="mzL0r8CzNdmKKFGyqJOy-35">
          <mxGeometry relative="1" as="geometry">
            <Array as="points">
              <mxPoint x="368" y="425" />
            </Array>
          </mxGeometry>
        </mxCell>
        <mxCell id="mzL0r8CzNdmKKFGyqJOy-41" value="Access" style="edgeLabel;html=1;align=center;verticalAlign=middle;resizable=0;points=[];rounded=1;strokeColor=default;fontFamily=Fira Sans;fontSource=https%3A%2F%2Ffonts.googleapis.com%2Fcss%3Ffamily%3DFira%2BSans;fontSize=12;fontColor=default;horizontal=1;fillColor=default;" vertex="1" connectable="0" parent="mzL0r8CzNdmKKFGyqJOy-39">
          <mxGeometry x="-0.1852" y="-3" relative="1" as="geometry">
            <mxPoint as="offset" />
          </mxGeometry>
        </mxCell>
        <mxCell id="mzL0r8CzNdmKKFGyqJOy-40" value="" style="group" vertex="1" connectable="0" parent="1">
          <mxGeometry x="150" y="370" width="130" height="110" as="geometry" />
        </mxCell>
        <mxCell id="mzL0r8CzNdmKKFGyqJOy-15" value="Settlement" style="rounded=1;whiteSpace=wrap;html=1;align=center;verticalAlign=bottom;fontFamily=Fira Sans;fontSource=https%3A%2F%2Ffonts.googleapis.com%2Fcss%3Ffamily%3DFira%2BSans;fontSize=12;horizontal=1;fontStyle=1;labelPosition=center;verticalLabelPosition=top;" vertex="1" parent="mzL0r8CzNdmKKFGyqJOy-40">
          <mxGeometry width="130" height="110" as="geometry" />
        </mxCell>
        <mxCell id="mzL0r8CzNdmKKFGyqJOy-16" value="Settlement&lt;div&gt;Definition&lt;/div&gt;" style="rounded=1;whiteSpace=wrap;html=1;strokeColor=#666666;align=center;verticalAlign=middle;fontFamily=Fira Sans;fontSource=https%3A%2F%2Ffonts.googleapis.com%2Fcss%3Ffamily%3DFira%2BSans;fontSize=12;fontColor=#333333;horizontal=1;fillColor=#f5f5f5;" vertex="1" parent="mzL0r8CzNdmKKFGyqJOy-40">
          <mxGeometry x="20" y="20" width="90" height="30" as="geometry" />
        </mxCell>
        <mxCell id="mzL0r8CzNdmKKFGyqJOy-37" value="Settlement&lt;div&gt;Engine&lt;/div&gt;" style="rounded=1;whiteSpace=wrap;html=1;strokeColor=#666666;align=center;verticalAlign=middle;fontFamily=Fira Sans;fontSource=https%3A%2F%2Ffonts.googleapis.com%2Fcss%3Ffamily%3DFira%2BSans;fontSize=12;fontColor=#333333;horizontal=1;fillColor=#f5f5f5;" vertex="1" parent="mzL0r8CzNdmKKFGyqJOy-40">
          <mxGeometry x="20" y="60" width="90" height="30" as="geometry" />
        </mxCell>
        <mxCell id="mzL0r8CzNdmKKFGyqJOy-45" style="edgeStyle=orthogonalEdgeStyle;rounded=0;orthogonalLoop=1;jettySize=auto;html=1;entryX=0.5;entryY=0;entryDx=0;entryDy=0;fontFamily=Fira Sans;fontSource=https%3A%2F%2Ffonts.googleapis.com%2Fcss%3Ffamily%3DFira%2BSans;fontSize=12;fontColor=default;horizontal=1;" edge="1" parent="1" source="C3J6-2w8ZtnEFhaiWDgr-69" target="mzL0r8CzNdmKKFGyqJOy-43">
          <mxGeometry relative="1" as="geometry" />
        </mxCell>
        <mxCell id="mzL0r8CzNdmKKFGyqJOy-46" value="Depend on" style="edgeLabel;html=1;align=center;verticalAlign=middle;resizable=0;points=[];rounded=1;strokeColor=default;fontFamily=Fira Sans;fontSource=https%3A%2F%2Ffonts.googleapis.com%2Fcss%3Ffamily%3DFira%2BSans;fontSize=12;fontColor=default;horizontal=1;fillColor=default;" vertex="1" connectable="0" parent="mzL0r8CzNdmKKFGyqJOy-45">
          <mxGeometry x="0.3474" y="-2" relative="1" as="geometry">
            <mxPoint as="offset" />
          </mxGeometry>
        </mxCell>
        <mxCell id="mzL0r8CzNdmKKFGyqJOy-43" value="Accounting" style="rounded=1;whiteSpace=wrap;html=1;align=center;verticalAlign=bottom;fontFamily=Fira Sans;fontSource=https%3A%2F%2Ffonts.googleapis.com%2Fcss%3Ffamily%3DFira%2BSans;fontSize=12;horizontal=1;fontStyle=1;labelPosition=center;verticalLabelPosition=top;" vertex="1" parent="1">
          <mxGeometry x="270" y="510" width="130" height="110" as="geometry" />
        </mxCell>
        <mxCell id="mzL0r8CzNdmKKFGyqJOy-44" value="Chart of Accounts" style="rounded=1;whiteSpace=wrap;html=1;strokeColor=#666666;align=center;verticalAlign=middle;fontFamily=Fira Sans;fontSource=https%3A%2F%2Ffonts.googleapis.com%2Fcss%3Ffamily%3DFira%2BSans;fontSize=12;fontColor=#333333;horizontal=1;fillColor=#f5f5f5;" vertex="1" parent="1">
          <mxGeometry x="290" y="530" width="90" height="30" as="geometry" />
        </mxCell>
        <mxCell id="mzL0r8CzNdmKKFGyqJOy-47" value="Ledger &amp;amp; Balance" style="rounded=1;whiteSpace=wrap;html=1;strokeColor=#666666;align=center;verticalAlign=middle;fontFamily=Fira Sans;fontSource=https%3A%2F%2Ffonts.googleapis.com%2Fcss%3Ffamily%3DFira%2BSans;fontSize=12;fontColor=#333333;horizontal=1;fillColor=#f5f5f5;" vertex="1" parent="1">
          <mxGeometry x="290" y="570" width="90" height="30" as="geometry" />
        </mxCell>
        <mxCell id="mzL0r8CzNdmKKFGyqJOy-35" value="Transaction" style="rounded=1;whiteSpace=wrap;html=1;align=center;verticalAlign=bottom;fontFamily=Fira Sans;fontSource=https%3A%2F%2Ffonts.googleapis.com%2Fcss%3Ffamily%3DFira%2BSans;fontSize=12;horizontal=1;fontStyle=1;labelPosition=center;verticalLabelPosition=top;" vertex="1" parent="1">
          <mxGeometry x="390" y="370" width="130" height="110" as="geometry" />
        </mxCell>
        <mxCell id="mzL0r8CzNdmKKFGyqJOy-36" value="Transaction&lt;div&gt;Definition&lt;/div&gt;" style="rounded=1;whiteSpace=wrap;html=1;strokeColor=#666666;align=center;verticalAlign=middle;fontFamily=Fira Sans;fontSource=https%3A%2F%2Ffonts.googleapis.com%2Fcss%3Ffamily%3DFira%2BSans;fontSize=12;fontColor=#333333;horizontal=1;fillColor=#f5f5f5;" vertex="1" parent="1">
          <mxGeometry x="410" y="390" width="90" height="30" as="geometry" />
        </mxCell>
        <mxCell id="mzL0r8CzNdmKKFGyqJOy-48" value="Transaction&lt;div&gt;Record&lt;/div&gt;" style="rounded=1;whiteSpace=wrap;html=1;strokeColor=#666666;align=center;verticalAlign=middle;fontFamily=Fira Sans;fontSource=https%3A%2F%2Ffonts.googleapis.com%2Fcss%3Ffamily%3DFira%2BSans;fontSize=12;fontColor=#333333;horizontal=1;fillColor=#f5f5f5;" vertex="1" parent="1">
          <mxGeometry x="410" y="430" width="90" height="30" as="geometry" />
        </mxCell>
      </root>
    </mxGraphModel>
  </diagram>
  <diagram id="trciOFP74JbbWXvL6SP_" name="Page-3">
    <mxGraphModel dx="1426" dy="722" grid="1" gridSize="10" guides="1" tooltips="1" connect="1" arrows="1" fold="1" page="0" pageScale="1" pageWidth="850" pageHeight="1100" math="0" shadow="0">
      <root>
        <mxCell id="0" />
        <mxCell id="1" parent="0" />
      </root>
    </mxGraphModel>
  </diagram>
</mxfile>
